<svg width="31" height="28" viewBox="0 0 31 28" fill="none" xmlns="http://www.w3.org/2000/svg">
<path d="M28.1044 0.934505C23.2601 -0.846642 19.7777 2.98594 19.7777 2.98594L23.08 4.9057C24.317 4.19532 24.868 4.88491 25.01 5.26262C25.1105 5.52945 24.9754 5.82053 24.868 5.97993L24.064 6.99526C19.7257 12.2278 14.6251 16.7742 8.93194 20.489C8.93194 20.489 7.21325 21.8751 6.29846 21.8959C5.52921 21.9132 5.18616 21.2652 5.83414 20.3365L4.24019 16.7396C4.24019 16.7396 0.0924615 19.4564 0.896366 24.2315C1.23595 26.2483 3.13136 27.6829 5.14458 27.319C6.17372 27.1354 7.44541 26.6329 9.00124 25.6037L11.8634 23.7325C17.5566 20.0108 22.6607 15.4505 26.9955 10.211L27.9796 9.02244C29.4627 7.33485 30.128 5.94528 30.3532 4.84679C30.6997 3.16614 29.7052 1.5236 28.1044 0.934505Z" fill="white"/>
</svg>
