<svg width="22" height="28" viewBox="0 0 22 28" fill="none" xmlns="http://www.w3.org/2000/svg">
<path d="M5.04695 0V10.6141C6.17311 8.63198 9.32289 7.54389 11.343 7.54389C16.9392 7.54389 21.1008 10.9641 21.1008 17.5724C21.1008 23.8688 16.863 27.6009 11.2287 27.6009C8.89668 27.6009 6.52655 26.8246 5.04695 24.5306L4.73509 27.1746H0.303223V0H5.04695ZM5.35534 17.5724C5.35534 21.0307 7.91952 23.2104 10.9134 23.2104C13.9453 23.2104 16.3571 20.9163 16.3571 17.5724C16.3571 14.114 13.9453 11.976 10.9134 11.976C7.92299 11.9725 5.35534 14.2284 5.35534 17.5724Z" fill="#112211"/>
</svg>
