<svg width="21" height="21" viewBox="0 0 21 21" fill="none" xmlns="http://www.w3.org/2000/svg">
<path d="M6.15213 13.9129C7.25403 16.0336 9.77663 16.9381 12.9195 15.7945C14.5619 15.195 16.492 13.7916 17.1296 12.3604L21.0036 14.1347C19.822 16.7994 17.0637 18.8786 14.3229 19.8766C8.11339 22.136 3.02661 19.6444 0.92676 13.8713C-1.06914 8.39271 1.22129 3.09085 7.06692 0.963176C13.0927 -1.23034 18.2142 1.12604 20.217 8.79468L6.15213 13.9129ZM14.6001 6.66007C13.4566 4.42844 11.2043 3.92598 8.64701 4.85467C6.2353 5.73138 4.68986 7.61995 4.8839 10.1946L14.6001 6.66007Z" fill="#112211"/>
</svg>
