<svg width="77" height="15" viewBox="0 0 77 15" fill="none" xmlns="http://www.w3.org/2000/svg">
<path d="M1.982 6.208H6.868V7.748H1.982V6.208ZM2.136 11.5H0.316V1.7H7.47V3.226H2.136V11.5ZM9.06206 11.5V4.024H10.8121V11.5H9.06206ZM9.94406 2.792C9.6174 2.792 9.34673 2.68933 9.13206 2.484C8.92673 2.27867 8.82406 2.03133 8.82406 1.742C8.82406 1.44333 8.92673 1.196 9.13206 0.999999C9.34673 0.794666 9.6174 0.692 9.94406 0.692C10.2707 0.692 10.5367 0.79 10.7421 0.985999C10.9567 1.17267 11.0641 1.41067 11.0641 1.7C11.0641 2.008 10.9614 2.26933 10.7561 2.484C10.5507 2.68933 10.2801 2.792 9.94406 2.792ZM17.3509 3.94C17.9483 3.94 18.4803 4.05667 18.9469 4.29C19.4229 4.52333 19.7963 4.88267 20.0669 5.368C20.3376 5.844 20.4729 6.46 20.4729 7.216V11.5H18.7229V7.44C18.7229 6.77733 18.5643 6.28267 18.2469 5.956C17.9389 5.62933 17.5049 5.466 16.9449 5.466C16.5343 5.466 16.1703 5.55 15.8529 5.718C15.5356 5.886 15.2883 6.138 15.1109 6.474C14.9429 6.80067 14.8589 7.216 14.8589 7.72V11.5H13.1089V4.024H14.7749V6.04L14.4809 5.424C14.7423 4.948 15.1203 4.584 15.6149 4.332C16.1189 4.07067 16.6976 3.94 17.3509 3.94ZM25.8706 11.598C25.1519 11.598 24.5033 11.4393 23.9246 11.122C23.3553 10.7953 22.9073 10.3473 22.5806 9.778C22.2539 9.20867 22.0906 8.53667 22.0906 7.762C22.0906 6.98733 22.2539 6.31533 22.5806 5.746C22.9073 5.17667 23.3553 4.73333 23.9246 4.416C24.5033 4.09867 25.1519 3.94 25.8706 3.94C26.4959 3.94 27.0559 4.08 27.5506 4.36C28.0453 4.63067 28.4373 5.046 28.7266 5.606C29.0159 6.166 29.1606 6.88467 29.1606 7.762C29.1606 8.63 29.0206 9.34867 28.7406 9.918C28.4606 10.478 28.0733 10.898 27.5786 11.178C27.0839 11.458 26.5146 11.598 25.8706 11.598ZM26.0806 10.1C26.5006 10.1 26.8739 10.0067 27.2006 9.82C27.5366 9.63333 27.8026 9.36267 27.9986 9.008C28.2039 8.65333 28.3066 8.238 28.3066 7.762C28.3066 7.27667 28.2039 6.86133 27.9986 6.516C27.8026 6.16133 27.5366 5.89067 27.2006 5.704C26.8739 5.51733 26.5006 5.424 26.0806 5.424C25.6606 5.424 25.2826 5.51733 24.9466 5.704C24.6199 5.89067 24.3539 6.16133 24.1486 6.516C23.9526 6.86133 23.8546 7.27667 23.8546 7.762C23.8546 8.238 23.9526 8.65333 24.1486 9.008C24.3539 9.36267 24.6199 9.63333 24.9466 9.82C25.2826 10.0067 25.6606 10.1 26.0806 10.1ZM28.3486 11.5V9.736L28.4186 7.748L28.2786 5.76V1.112H30.0146V11.5H28.3486ZM38.0211 6.208H42.9071V7.748H38.0211V6.208ZM38.1751 11.5H36.3551V1.7H43.5091V3.226H38.1751V11.5ZM45.1011 11.5V1.112H46.8511V11.5H45.1011ZM49.148 11.5V4.024H50.898V11.5H49.148ZM50.03 2.792C49.7033 2.792 49.4327 2.68933 49.218 2.484C49.0127 2.27867 48.91 2.03133 48.91 1.742C48.91 1.44333 49.0127 1.196 49.218 0.999999C49.4327 0.794666 49.7033 0.692 50.03 0.692C50.3567 0.692 50.6227 0.79 50.828 0.985999C51.0427 1.17267 51.15 1.41067 51.15 1.7C51.15 2.008 51.0473 2.26933 50.842 2.484C50.6367 2.68933 50.366 2.792 50.03 2.792ZM56.5829 14.314C55.8922 14.314 55.2155 14.2207 54.5529 14.034C53.8995 13.8567 53.3629 13.5953 52.9429 13.25L53.7269 11.934C54.0535 12.2047 54.4642 12.4193 54.9589 12.578C55.4629 12.746 55.9715 12.83 56.4849 12.83C57.3062 12.83 57.9082 12.6387 58.2909 12.256C58.6735 11.8827 58.8649 11.318 58.8649 10.562V9.232L59.0049 7.538L58.9489 5.844V4.024H60.6149V10.366C60.6149 11.7193 60.2695 12.7133 59.5789 13.348C58.8882 13.992 57.8895 14.314 56.5829 14.314ZM56.3589 11.164C55.6495 11.164 55.0055 11.0147 54.4269 10.716C53.8575 10.408 53.4049 9.98333 53.0689 9.442C52.7422 8.90067 52.5789 8.266 52.5789 7.538C52.5789 6.81933 52.7422 6.18933 53.0689 5.648C53.4049 5.10667 53.8575 4.68667 54.4269 4.388C55.0055 4.08933 55.6495 3.94 56.3589 3.94C56.9935 3.94 57.5629 4.066 58.0669 4.318C58.5709 4.57 58.9722 4.962 59.2709 5.494C59.5789 6.026 59.7329 6.70733 59.7329 7.538C59.7329 8.36867 59.5789 9.05467 59.2709 9.596C58.9722 10.128 58.5709 10.5247 58.0669 10.786C57.5629 11.038 56.9935 11.164 56.3589 11.164ZM56.6249 9.68C57.0635 9.68 57.4555 9.59133 57.8009 9.414C58.1462 9.22733 58.4122 8.97533 58.5989 8.658C58.7949 8.33133 58.8929 7.958 58.8929 7.538C58.8929 7.118 58.7949 6.74933 58.5989 6.432C58.4122 6.10533 58.1462 5.858 57.8009 5.69C57.4555 5.51267 57.0635 5.424 56.6249 5.424C56.1862 5.424 55.7895 5.51267 55.4349 5.69C55.0895 5.858 54.8189 6.10533 54.6229 6.432C54.4362 6.74933 54.3429 7.118 54.3429 7.538C54.3429 7.958 54.4362 8.33133 54.6229 8.658C54.8189 8.97533 55.0895 9.22733 55.4349 9.414C55.7895 9.59133 56.1862 9.68 56.6249 9.68ZM67.1576 3.94C67.7549 3.94 68.2869 4.05667 68.7536 4.29C69.2296 4.52333 69.6029 4.88267 69.8736 5.368C70.1442 5.844 70.2796 6.46 70.2796 7.216V11.5H68.5296V7.44C68.5296 6.77733 68.3709 6.28267 68.0536 5.956C67.7456 5.62933 67.3116 5.466 66.7516 5.466C66.3409 5.466 65.9769 5.55 65.6596 5.718C65.3422 5.886 65.0949 6.138 64.9176 6.474C64.7496 6.80067 64.6656 7.216 64.6656 7.72V11.5H62.9156V1.112H64.6656V6.04L64.2876 5.424C64.5489 4.948 64.9269 4.584 65.4216 4.332C65.9256 4.07067 66.5042 3.94 67.1576 3.94ZM75.3136 11.598C74.4922 11.598 73.8576 11.388 73.4096 10.968C72.9616 10.5387 72.7376 9.90867 72.7376 9.078V2.372H74.4876V9.036C74.4876 9.39067 74.5762 9.666 74.7536 9.862C74.9402 10.058 75.1969 10.156 75.5236 10.156C75.9156 10.156 76.2422 10.0533 76.5036 9.848L76.9936 11.094C76.7882 11.262 76.5362 11.388 76.2376 11.472C75.9389 11.556 75.6309 11.598 75.3136 11.598ZM71.5056 5.48V4.08H76.4896V5.48H71.5056Z" fill="white"/>
</svg>
