<svg width="20" height="34" viewBox="0 0 20 34" fill="none" xmlns="http://www.w3.org/2000/svg">
<path d="M16.0157 0.064209L19.5155 2.70821L17.3775 5.42844C18.8536 7.0987 19.3976 9.0046 19.3976 11.1046C19.3976 13.4748 18.5037 16.8188 15.3539 18.2569C18.5418 19.8509 19.318 22.1449 19.318 24.5948C19.318 29.8828 15.2742 33.1471 9.71615 33.1471C4.15812 33.1471 0 29.765 0 24.5948H4.70215C4.70215 27.0829 6.99604 28.715 9.71615 28.715C12.4363 28.715 14.5742 27.2388 14.5742 24.5948C14.5742 21.9508 12.0863 20.7449 9.71615 20.7449C3.73192 20.7449 0 17.0925 0 11.1046C0 5.11657 4.35217 1.38448 9.71961 1.38448C11.2373 1.38448 12.7897 1.57853 14.1134 2.47257L16.0157 0.064209ZM4.70215 11.1046C4.70215 14.4485 6.95793 16.4307 9.71615 16.4307C12.4363 16.4307 14.692 14.4104 14.692 11.1046C14.692 7.79869 12.4397 5.7022 9.71961 5.7022C6.95793 5.7022 4.70215 7.76057 4.70215 11.1046Z" fill="#112211"/>
</svg>
